<svg version="1.1" id="Layer_1" xmlns="http://www.w3.org/2000/svg" xmlns:xlink="http://www.w3.org/1999/xlink" x="0px" y="0px"
	 width="100%" viewBox="0 0 960 280" enable-background="new 0 0 960 280" xml:space="preserve">
<path fill="#0769AD" opacity="1.000000" stroke="none" 
	d="
M668.000000,281.000000 
	C445.333344,281.000000 223.166672,281.000000 1.000000,281.000000 
	C1.000000,187.666672 1.000000,94.333336 1.000000,1.000000 
	C321.000000,1.000000 641.000000,1.000000 961.000000,1.000000 
	C961.000000,94.333336 961.000000,187.666672 961.000000,281.000000 
	C863.500000,281.000000 766.000000,281.000000 668.000000,281.000000 
M190.421097,239.059189 
	C194.726044,239.373123 199.030914,239.958405 203.335953,239.959702 
	C255.683975,239.975372 293.652893,189.961990 278.979706,139.683609 
	C276.013306,129.519104 270.390198,120.129929 265.679108,109.690117 
	C268.684875,106.720123 272.697876,102.972206 276.445007,98.975067 
	C278.894073,96.362648 280.904022,95.335518 284.915192,96.574753 
	C299.202942,100.988892 314.142059,92.588585 318.530914,78.347084 
	C322.857819,64.306534 315.330139,49.259926 301.523804,44.352699 
	C287.436157,39.345493 271.922852,46.377972 266.651184,60.356529 
	C264.091522,67.143776 264.385376,74.016220 266.807709,80.880913 
	C267.311615,82.308891 267.494934,84.651794 266.685699,85.606697 
	C262.516754,90.526115 257.976257,95.130692 253.677979,99.724899 
	C221.200180,75.189423 183.678452,78.171524 158.180969,95.699959 
	C131.787064,113.844650 118.637787,146.742142 125.539093,177.453339 
	C132.806992,209.795807 157.624344,233.642319 190.421097,239.059189 
M701.017029,99.324799 
	C700.601807,97.930717 700.186646,96.536636 699.830688,95.341461 
	C690.376526,95.341461 681.298645,95.341461 672.394043,95.341461 
	C672.394043,126.083549 672.394043,156.476288 672.394043,186.715912 
	C678.214172,186.715912 683.643066,186.715912 689.693848,186.715912 
	C689.693848,164.808517 689.693848,143.184006 689.693848,121.559486 
	C690.046997,121.527313 690.400146,121.495132 690.753357,121.462959 
	C696.232300,143.266739 701.711304,165.070511 707.139099,186.670807 
	C713.590637,186.670807 719.518738,186.670807 725.435425,186.670807 
	C731.087708,164.213165 736.660583,142.070786 742.233521,119.928413 
	C742.584839,119.972603 742.936218,120.016785 743.287537,120.060974 
	C743.287537,142.282700 743.287537,164.504425 743.287537,186.650848 
	C749.386597,186.650848 754.955078,186.650848 760.586975,186.650848 
	C760.586975,156.033295 760.586975,125.772018 760.586975,95.285858 
	C751.112000,95.285858 741.881836,95.285858 732.572998,95.285858 
	C727.262146,115.502975 722.017700,135.467331 716.386963,156.902206 
	C711.071350,136.994293 706.148743,118.557945 701.017029,99.324799 
M456.885773,151.466461 
	C445.891296,133.817825 434.913239,116.158882 423.869080,98.541374 
	C423.040680,97.219902 421.796783,95.258499 420.649689,95.189163 
	C414.930145,94.843491 409.178345,95.031174 403.478882,95.031174 
	C403.478882,126.046524 403.478882,156.288834 403.478882,186.747955 
	C409.308899,186.747955 414.873413,186.747955 421.141174,186.747955 
	C421.141174,167.757751 421.141174,149.014313 421.141174,128.948868 
	C422.857910,131.614273 423.774628,132.996857 424.651093,134.404465 
	C434.850128,150.784149 445.003937,167.192291 455.304382,183.507919 
	C456.230835,184.975418 458.029236,186.732300 459.534546,186.843750 
	C464.968048,187.246033 470.449402,187.001953 476.115662,187.001953 
	C476.115662,156.182159 476.115662,125.761879 476.115662,95.341347 
	C470.315002,95.341347 464.754608,95.341347 458.994080,95.341347 
	C458.994080,111.826302 458.994751,127.964874 458.993408,144.103439 
	C458.993164,146.767792 458.984161,149.432129 458.979187,152.096481 
	C458.399414,152.089890 457.819672,152.083298 456.885773,151.466461 
M645.764526,137.666870 
	C640.234375,135.446655 634.780457,133.005249 629.154114,131.063904 
	C622.570679,128.792313 615.654724,127.389877 609.263672,124.704544 
	C606.918396,123.719131 604.246033,120.107590 604.307190,117.761368 
	C604.367859,115.435799 607.226135,112.212082 609.649292,111.085136 
	C620.882202,105.861107 630.248596,109.839607 636.636719,122.185974 
	C642.539307,121.816811 648.591980,121.438255 654.706848,121.055817 
	C653.891296,110.034546 649.775757,101.606026 640.339172,97.221878 
	C627.009033,91.028786 613.168335,90.930229 599.739014,97.046944 
	C591.222900,100.925819 586.617432,108.028114 585.984497,117.514809 
	C585.309448,127.632729 589.486511,135.402969 597.930603,140.628922 
	C601.691406,142.956436 606.025635,144.493988 610.266907,145.877090 
	C616.894775,148.038498 623.700378,149.649384 630.361633,151.715958 
	C634.482910,152.994537 638.069641,155.043732 638.268005,160.156265 
	C638.479248,165.601135 635.399597,168.880432 630.878784,170.959412 
	C617.974304,176.893845 605.530212,171.352417 601.123474,157.835159 
	C600.936401,157.261215 600.768005,156.681152 600.500854,155.810608 
	C594.324219,156.542847 588.485352,157.235062 582.663086,157.925308 
	C584.462402,173.852158 592.206177,183.721466 605.840454,187.319489 
	C616.510437,190.135239 627.332031,189.982666 637.882202,186.677628 
	C648.079224,183.483200 654.780212,176.384033 656.661743,165.906799 
	C658.634399,154.922134 656.131714,144.998383 645.764526,137.666870 
M573.702942,175.781464 
	C564.819153,153.560165 555.945557,131.334763 547.043030,109.120972 
	C545.195618,104.511215 544.443298,98.066956 541.008972,95.867096 
	C537.306396,93.495331 531.030334,95.322998 525.908081,94.921318 
	C522.510376,94.654900 521.066467,95.866936 519.850891,99.046356 
	C509.169464,126.984200 498.271667,154.839279 487.457245,182.726318 
	C486.960083,184.008362 486.646301,185.361496 486.193359,186.859344 
	C493.006653,186.859344 499.316986,186.859344 505.773834,186.859344 
	C508.364288,179.839172 510.925690,172.897644 513.414795,166.152100 
	C525.794373,166.152100 537.603882,166.152100 549.576477,166.152100 
	C550.147095,167.584518 550.654907,168.964737 551.240540,170.311096 
	C553.650269,175.850937 554.667542,183.633301 558.898682,186.292923 
	C563.308228,189.064728 570.825745,186.893265 576.984375,186.876480 
	C577.145935,186.876053 577.307251,186.799377 577.917358,186.644012 
	C576.578186,183.238037 575.257019,179.877838 573.702942,175.781464 
z"/>
<path fill="#FEFEFE" opacity="1.000000" stroke="none" 
	d="
M189.985504,239.009644 
	C157.624344,233.642319 132.806992,209.795807 125.539093,177.453339 
	C118.637787,146.742142 131.787064,113.844650 158.180969,95.699959 
	C183.678452,78.171524 221.200180,75.189423 253.677979,99.724899 
	C257.976257,95.130692 262.516754,90.526115 266.685699,85.606697 
	C267.494934,84.651794 267.311615,82.308891 266.807709,80.880913 
	C264.385376,74.016220 264.091522,67.143776 266.651184,60.356529 
	C271.922852,46.377972 287.436157,39.345493 301.523804,44.352699 
	C315.330139,49.259926 322.857819,64.306534 318.530914,78.347084 
	C314.142059,92.588585 299.202942,100.988892 284.915192,96.574753 
	C280.904022,95.335518 278.894073,96.362648 276.445007,98.975067 
	C272.697876,102.972206 268.684875,106.720123 265.679108,109.690117 
	C270.390198,120.129929 276.013306,129.519104 278.979706,139.683609 
	C293.652893,189.961990 255.683975,239.975372 203.335953,239.959702 
	C199.030914,239.958405 194.726044,239.373123 189.985504,239.009644 
z"/>
<path fill="#FCFCFD" opacity="1.000000" stroke="none" 
	d="
M701.121582,99.723190 
	C706.148743,118.557945 711.071350,136.994293 716.386963,156.902206 
	C722.017700,135.467331 727.262146,115.502975 732.572998,95.285858 
	C741.881836,95.285858 751.112000,95.285858 760.586975,95.285858 
	C760.586975,125.772018 760.586975,156.033295 760.586975,186.650848 
	C754.955078,186.650848 749.386597,186.650848 743.287537,186.650848 
	C743.287537,164.504425 743.287537,142.282700 743.287537,120.060974 
	C742.936218,120.016785 742.584839,119.972603 742.233521,119.928413 
	C736.660583,142.070786 731.087708,164.213165 725.435425,186.670807 
	C719.518738,186.670807 713.590637,186.670807 707.139099,186.670807 
	C701.711304,165.070511 696.232300,143.266739 690.753357,121.462959 
	C690.400146,121.495132 690.046997,121.527313 689.693848,121.559486 
	C689.693848,143.184006 689.693848,164.808517 689.693848,186.715912 
	C683.643066,186.715912 678.214172,186.715912 672.394043,186.715912 
	C672.394043,156.476288 672.394043,126.083549 672.394043,95.341461 
	C681.298645,95.341461 690.376526,95.341461 699.830688,95.341461 
	C700.186646,96.536636 700.601807,97.930717 701.121582,99.723190 
z"/>
<path fill="#FCFDFD" opacity="1.000000" stroke="none" 
	d="
M457.062836,151.771576 
	C457.819672,152.083298 458.399414,152.089890 458.979187,152.096481 
	C458.984161,149.432129 458.993164,146.767792 458.993408,144.103439 
	C458.994751,127.964874 458.994080,111.826302 458.994080,95.341347 
	C464.754608,95.341347 470.315002,95.341347 476.115662,95.341347 
	C476.115662,125.761879 476.115662,156.182159 476.115662,187.001953 
	C470.449402,187.001953 464.968048,187.246033 459.534546,186.843750 
	C458.029236,186.732300 456.230835,184.975418 455.304382,183.507919 
	C445.003937,167.192291 434.850128,150.784149 424.651093,134.404465 
	C423.774628,132.996857 422.857910,131.614273 421.141174,128.948868 
	C421.141174,149.014313 421.141174,167.757751 421.141174,186.747955 
	C414.873413,186.747955 409.308899,186.747955 403.478882,186.747955 
	C403.478882,156.288834 403.478882,126.046524 403.478882,95.031174 
	C409.178345,95.031174 414.930145,94.843491 420.649689,95.189163 
	C421.796783,95.258499 423.040680,97.219902 423.869080,98.541374 
	C434.913239,116.158882 445.891296,133.817825 457.062836,151.771576 
z"/>
<path fill="#FBFCFD" opacity="1.000000" stroke="none" 
	d="
M646.067383,137.863220 
	C656.131714,144.998383 658.634399,154.922134 656.661743,165.906799 
	C654.780212,176.384033 648.079224,183.483200 637.882202,186.677628 
	C627.332031,189.982666 616.510437,190.135239 605.840454,187.319489 
	C592.206177,183.721466 584.462402,173.852158 582.663086,157.925308 
	C588.485352,157.235062 594.324219,156.542847 600.500854,155.810608 
	C600.768005,156.681152 600.936401,157.261215 601.123474,157.835159 
	C605.530212,171.352417 617.974304,176.893845 630.878784,170.959412 
	C635.399597,168.880432 638.479248,165.601135 638.268005,160.156265 
	C638.069641,155.043732 634.482910,152.994537 630.361633,151.715958 
	C623.700378,149.649384 616.894775,148.038498 610.266907,145.877090 
	C606.025635,144.493988 601.691406,142.956436 597.930603,140.628922 
	C589.486511,135.402969 585.309448,127.632729 585.984497,117.514809 
	C586.617432,108.028114 591.222900,100.925819 599.739014,97.046944 
	C613.168335,90.930229 627.009033,91.028786 640.339172,97.221878 
	C649.775757,101.606026 653.891296,110.034546 654.706848,121.055817 
	C648.591980,121.438255 642.539307,121.816811 636.636719,122.185974 
	C630.248596,109.839607 620.882202,105.861107 609.649292,111.085136 
	C607.226135,112.212082 604.367859,115.435799 604.307190,117.761368 
	C604.246033,120.107590 606.918396,123.719131 609.263672,124.704544 
	C615.654724,127.389877 622.570679,128.792313 629.154114,131.063904 
	C634.780457,133.005249 640.234375,135.446655 646.067383,137.863220 
z"/>
<path fill="#FCFDFE" opacity="1.000000" stroke="none" 
	d="
M573.819397,176.149567 
	C575.257019,179.877838 576.578186,183.238037 577.917358,186.644012 
	C577.307251,186.799377 577.145935,186.876053 576.984375,186.876480 
	C570.825745,186.893265 563.308228,189.064728 558.898682,186.292923 
	C554.667542,183.633301 553.650269,175.850937 551.240540,170.311096 
	C550.654907,168.964737 550.147095,167.584518 549.576477,166.152100 
	C537.603882,166.152100 525.794373,166.152100 513.414795,166.152100 
	C510.925690,172.897644 508.364288,179.839172 505.773834,186.859344 
	C499.316986,186.859344 493.006653,186.859344 486.193359,186.859344 
	C486.646301,185.361496 486.960083,184.008362 487.457245,182.726318 
	C498.271667,154.839279 509.169464,126.984200 519.850891,99.046356 
	C521.066467,95.866936 522.510376,94.654900 525.908081,94.921318 
	C531.030334,95.322998 537.306396,93.495331 541.008972,95.867096 
	C544.443298,98.066956 545.195618,104.511215 547.043030,109.120972 
	C555.945557,131.334763 564.819153,153.560165 573.819397,176.149567 
M522.144531,141.632233 
	C521.221741,144.265671 520.298889,146.899109 519.294800,149.764557 
	C527.436096,149.764557 535.163940,149.764557 543.570251,149.764557 
	C539.503052,139.108826 535.600952,128.885651 531.270752,117.540810 
	C528.049561,126.080086 525.250366,133.500519 522.144531,141.632233 
z"/>
<path fill="#0C6BAE" opacity="1.000000" stroke="none" 
	d="
M522.297852,141.276596 
	C525.250366,133.500519 528.049561,126.080086 531.270752,117.540810 
	C535.600952,128.885651 539.503052,139.108826 543.570251,149.764557 
	C535.163940,149.764557 527.436096,149.764557 519.294800,149.764557 
	C520.298889,146.899109 521.221741,144.265671 522.297852,141.276596 
z"/>
</svg>